<svg width="128" height="128" xmlns="http://www.w3.org/2000/svg" xml:space="preserve" version="1.1">

 <g>
  <title>Layer 1</title>
  <ellipse stroke="null" ry="29.8849" rx="31.14926" id="svg_4" cy="113.47033" cx="74.68959" fill="#2771e8"/>
  <path stroke="null" id="svg_2" fill="#2e5b1a" d="m84.94004,85.1944c-1.91823,-0.52974 -3.87234,-0.97146 -5.85129,-1.33615l-2.99465,-11.29281l2.97809,-0.02672l-17.22129,-72.53871l-11.26097,45.17911l2.98085,0.04873l-9.65739,41.20839c-2.11005,0.72152 -4.18146,1.53421 -6.20044,2.44751l7.28375,-31.78933l-15.90199,-46.597l-7.62186,42.9611l2.77384,-0.20592l-6.92771,32.46998l12.17593,-1.10036l0.56305,8.3187c-13.00118,7.93201 -23.35272,19.97778 -29.34753,34.40189c-1.54976,3.93142 1.0364,4.70481 2.28946,4.69538c7.7778,-0.06445 24.6182,-0.0786 43.9178,-0.07231c3.27893,-8.58122 22.25284,-12.08035 26.45777,-19.43546c4.00482,-7.00299 -1.88787,-8.74313 -0.27324,-14.57974c1.5953,-5.75487 9.84507,-5.87905 11.65428,-9.76646c0.56857,-1.21982 0.57271,-2.20386 0.18354,-2.98983z" class="st0"/>
  <path stroke="null" id="svg_3" fill="#244912" d="m85.84533,85.59367c0.14214,0.68222 0.15318,1.42103 -0.02484,2.22272c-0.85975,3.88741 -7.56252,5.33359 -8.66239,9.16126c-1.39796,4.87616 3.88614,6.83165 2.80558,14.43355c-1.15094,8.09549 -14.4502,13.2373 -15.34446,20.60026c23.94337,0.02201 47.85914,0.05659 60.82168,0.05659c1.0985,0 3.22511,-2.86093 1.90305,-6.0331c-7.7916,-18.69822 -22.82831,-33.46659 -41.49862,-40.44128z" class="st0"/>
 </g>
</svg>