<svg width="128" height="128" xmlns="http://www.w3.org/2000/svg" xml:space="preserve" version="1.1" enable-background="new 0 0 512 512">

 <g>
  <title>Layer 1</title>
  <path stroke="null" id="svg_1" fill="#AEE0EE" d="m38.05133,23.62746l6.45735,13.25415l1.38363,-3.64503l2.53686,2.65101l1.15323,5.63306l0.82611,-3.85867l2.41384,8.49907l4.13993,-7.29095l3.21459,6.11478l2.50869,-3.35807l0,1.88233l2.57912,-12.59792l2.07544,5.63981l1.88668,-2.98205l1.34199,2.98205l1.61434,-0.99402l1.11629,-4.18701l-4.07262,-16.92122l-4.98607,20.71692l-4.06386,-13.57979l-7.35451,24.57559l-13.11003,-46.16149l-10.01628,35.26824l2.5907,2.93932l5.76459,-14.58011zm1.66067,-14.24817l3.18234,10.60314l-3.18234,-5.53456l0,-5.06858z"/>
  <polygon stroke="null" id="svg_2" points="83.25212089432226,47.485212757032045 84.40505495653689,40.19513544146683 85.78898418713071,44.984855059487 87.40333305089153,47.15370688211259 90.4012959712014,42.51465925501542 90.4012959712014,44.984855059487 93.23772534195597,43.63686314361438 87.40333305089153,25.86735639513243 81.12597049150973,44.984855059487 81.12597049150973,44.984855059487 " fill="#AEE0EE"/>
  <path stroke="null" id="svg_3" fill="#A9DCDE" d="m67.31912,97.39652c0.08702,-0.0099 0.1753,-0.01889 0.26264,-0.02834l-0.12678,-0.28921l-0.13586,0.31755z"/>
  <path stroke="null" id="svg_4" fill="#319de0" d="m122.08261,103.12178c0.54876,-1.06823 0.83894,-2.16435 0.83894,-3.28295c0,-2.73062 -1.70324,-5.33261 -4.78228,-7.70115l-2.23227,2.29074l-12.53623,0l-3.35201,-3.11698l-0.68681,-1.3417l-6.02598,0l0.32368,2.04336l-2.33965,2.40093l-9.65628,0l-2.58194,-2.40093l-1.04586,-2.04336l-1.11473,6.69364l-0.52872,3.17546l-1.29786,-3.08595l-2.85303,-6.78315l-2.58225,7.18795l-0.96322,2.68115l-1.08405,-2.4711c-0.08734,0.00945 -0.17561,0.01889 -0.26264,0.02834l-2.05509,4.80321l-1.17045,-4.39436l-2.08702,-7.83564l-4.11207,8.89532l-2.46048,5.32271l-1.25184,-4.47442l-2.72625,-9.74361l-2.69244,6.55556l-2.40695,-6.55556l1.10596,6.98105l-2.94005,3.01668l-12.13398,0l-3.24464,-3.01668l-1.57458,-3.0765l-15.25465,0l-4.1994,-3.90455l-0.00438,-0.00855c-5.16012,2.91008 -8.11113,6.28254 -8.11113,9.87764c0,4.95884 5.6134,9.49308 14.89528,12.97574c-0.48114,0.8186 -0.73564,1.66689 -0.73564,2.53677c0,6.80519 15.49256,12.32131 34.60384,12.32131c11.92581,0 22.442,-2.14815 28.66426,-5.41716c1.94303,0.07556 3.92518,0.11559 5.93958,0.11559c24.51776,0 44.39348,-5.78599 44.39348,-12.92266c0,-2.29793 -2.06417,-4.45598 -5.6782,-6.32617zm-83.63028,17.7884c-0.9629,0.25638 -1.93739,0.39176 -2.9147,0.47542c-0.48959,0.01754 -0.98012,0.02924 -1.47003,0.01079c-0.49084,-0.03913 -0.98137,-0.10705 -1.46971,-0.18441l-1.46283,-0.33734c-0.48615,-0.15023 -0.9723,-0.25727 -1.45657,-0.41785c-0.96948,-0.29281 -1.93051,-0.68682 -2.87087,-1.18292c-0.93285,-0.53164 -1.84473,-1.19822 -2.65707,-2.09913c-0.39631,-0.46912 -0.77696,-0.97378 -1.08687,-1.57288c-0.31867,-0.58337 -0.57724,-1.2423 -0.74033,-1.9453c-0.33933,-1.40332 -0.31147,-2.93302 0.07419,-4.25808l0.17468,0.09985c-0.22382,1.29492 -0.10612,2.69644 0.28674,3.84248c0.19346,0.57977 0.46236,1.09927 0.77946,1.54815c0.30678,0.46238 0.67554,0.83839 1.05306,1.18247c1.54797,1.3435 3.40241,1.90707 5.239,2.257c0.46079,0.08906 0.9316,0.12189 1.39584,0.17182l1.40648,0.04723c0.47081,-0.00225 0.93943,0.00945 1.40773,0.04183c0.4705,0.01079 0.94068,0.05128 1.41149,0.0976c1.88793,0.18936 3.79026,0.35218 5.74362,0.89866l0.0144,0.26897c-0.93943,0.47047 -1.89294,0.82175 -2.85772,1.05564zm73.26371,-10.33822c-0.473,0.73224 -0.97668,1.42985 -1.51072,2.08519c-0.53905,0.64544 -1.10784,1.24814 -1.70512,1.80002c-0.60229,0.53704 -1.22836,1.0354 -1.88574,1.45189c-0.65675,0.4147 -1.3254,0.8249 -2.02442,1.13885c-0.70058,0.29641 -1.43215,0.47047 -2.16622,0.44393c-0.73251,-0.02429 -1.46314,-0.15877 -2.16184,-0.45788c-0.69964,-0.28111 -1.36798,-0.71695 -1.97151,-1.31381l0.0457,-0.26177c1.43841,-0.26717 2.71686,-0.37602 3.97589,-0.66073c0.62795,-0.12819 1.2462,-0.25997 1.87948,-0.35982c0.63265,-0.1057 1.26874,-0.27527 1.88824,-0.54693c0.62044,-0.26672 1.22711,-0.61665 1.82282,-1.01021c0.59978,-0.38456 1.18673,-0.82715 1.75583,-1.32101c1.14854,-0.96703 2.23071,-2.14771 3.20927,-3.48895l0.14775,0.16687c-0.38566,0.83434 -0.82392,1.60482 -1.29942,2.33436z"/>
  <path stroke="null" id="svg_5" fill="#6b524e" d="m20.85928,66.38096l2.23165,1.66644l2.95727,-8.7388l3.63218,5.71582l4.6699,-15.90516l5.53482,9.19488l1.72953,-3.23078l5.04179,20.57974l-8.50117,-15.85794l-4.84301,14.83693l-2.76726,-5.39333l-3.34794,1.86434l1.86038,1.38892l1.76397,11.13388l0.07075,-0.18126l5.0781,-2.30423l3.02019,-2.42567l6.33432,4.72945l1.03209,6.51508l0,0l5.09939,0l10.55063,0l10.20472,0l5.79465,0l-0.54093,-1.05654l2.97762,-7.63998l4.04132,-1.83376l2.40351,-1.93001l5.04085,3.76377l1.37737,8.69742l6.02535,0l-1.3733,-2.68294l3.02207,-7.75378l-12.42385,-5.53995l-5.18892,-0.79161l4.03569,-6.49844l6.22664,4.63904l0,-6.29559l7.64501,13.73047l0.54938,-1.40916l2.16654,-0.98322l-1.75301,-5.3389l-8.99984,-27.40922l0,0l-2.83644,1.34754l0,-2.46975l-2.99796,4.63904l-1.61434,-2.16929l-1.38363,-4.78927l-1.15323,7.2896l-2.12615,-2.50033l0,0l-2.81108,7.22439l0,0l-0.74347,-3.08955l-4.12021,-10.41513l-2.65206,2.81653l-1.57239,-2.65101l-2.87118,3.36211l-0.62983,-7.50415l1.26843,3.47906l2.23259,-2.65101l1.22648,2.65101l1.84505,-1.73975l1.2174,-4.19961l2.7948,11.612l-3.01111,-12.51066l0,0l-1.11629,4.18701l-1.61434,0.99402l-1.34199,-2.98205l-1.88668,2.98205l-2.07544,-5.63981l-2.57912,12.59792l0,-1.88233l-2.50869,3.35807l-3.21459,-6.11478l-4.13993,7.29095l2.8715,2.95866l2.22914,-4.13484l3.383,6.14536l-2.84458,13.91713l-3.92111,-12.83765l-1.71764,-6.04821l-2.41384,-8.49907l-0.82611,3.85867l-1.15323,-5.63306l-2.53686,-2.65101l-1.38363,3.64503l-6.45735,-13.25415l-5.76553,14.57966l-2.5907,-2.93932l0,0l-5.4309,19.12245l-3.40523,11.99162l0,0zm66.88995,-17.2617l1.84505,-3.12553l0,1.56254l3.45938,-2.57185l7.26436,24.53556l-7.72578,-20.40073l-4.03569,3.99855l1.38363,-3.31354l-6.57254,2.40453l4.38159,-3.08955z"/>
  <polygon stroke="null" id="svg_6" points="33.31256054547121,74.64254686112689 38.155250853050894,59.805617462983705 46.656426659466526,75.6635420638522 41.614642278126304,55.0838102204343 39.885104152610985,58.31456964040079 34.35027793949266,49.11926149654754 29.680070053719287,65.02442231646818 26.047881032792798,59.30859235715978 23.090931847961297,68.04740286136074 27.1970467096895,71.11355038175496 30.544989851889664,69.24920445319366 " fill="#936861"/>
  <polygon stroke="null" id="svg_7" points="58.46109236455013,65.04688564066235 61.30534627354664,51.1297702542597 57.922665470324866,44.984855059487 55.693521670968586,49.11926149654754 52.82202576192831,46.16103141490747 54.53965578983898,52.20924708557867 " fill="#936861"/>
  <polygon stroke="null" id="svg_8" points="73.51539431630373,32.26819401536339 72.29800031032356,36.46735091567642 70.45294404578964,38.207117502837704 69.22646480538843,35.556115309258516 66.99356632393356,38.207117502837704 65.72545670318378,34.72805174162566 66.35528407039293,42.2322042618125 69.22646480538843,38.86963434467724 70.79885441153657,41.52066403314528 73.45090696609951,38.70411511377277 77.57110873730709,49.11926149654754 77.57110873730709,49.11926149654754 77.57110873730709,49.11926149654754 76.3101933067097,43.880192909977254 " fill="#936861"/>
  <polygon stroke="null" id="svg_9" points="88.55623970666748,53.11825560599935 92.59193372421815,49.11926149654754 100.31769916117865,69.51997411863339 93.05334852576435,44.984855059487 89.59395710068894,47.55672696294276 89.59395710068894,45.99416493444913 87.74922971341913,49.11926149654754 83.36732385929609,52.20924708557867 89.93988116965521,49.804709075691775 " fill="#936861"/>
  <polygon stroke="null" id="svg_10" points="93.62965111823961,65.04688564066235 93.62965111823961,71.3425003212469 87.40333305089153,66.70345269414973 83.36732385929609,73.20189716981439 88.55623970666748,73.99350251482609 100.98009908075402,79.53344767013185 101.27466348364179,78.77736572152024 " fill="#936861"/>
  <polygon stroke="null" id="svg_11" points="39.711991382715134,9.379289324835367 39.711991382715134,14.447876712278214 42.89434482243596,19.982886535034577 " fill="#FFFFFF"/>
  <path stroke="null" id="svg_12" fill="#7c7670" d="m12.31491,93.87473l15.25465,0l1.57458,3.0765l3.24464,3.01668l12.13398,0l2.94005,-3.01668l-1.10596,-6.98105l-1.03209,-6.51508l-6.33432,-4.72945l-3.02019,2.42567l-5.0781,2.30423l-0.07075,0.18126l-1.76397,-11.13388l-1.86038,-1.38892l-4.10612,-3.06616l-2.23165,-1.66644l0,0l0,0l-3.9089,3.13902l-6.57254,2.98205l-4.84301,12.42565l2.5763,5.0335l0.00438,0.00855l4.1994,3.90455zm23.78901,-10.41963l3.60808,4.22434l4.14274,-3.07201l2.13805,10.56041l-2.67272,3.45612l1.33636,-4.60801l-1.87103,-5.9524l-5.4791,4.4164l-6.14713,-7.48841l4.94475,-1.53645zm-18.98074,-10.95262l4.6699,5.46754l5.36171,-3.97607l2.76726,13.6684l-3.45938,4.47307l1.72953,-5.96455l-2.42135,-7.70385l-7.09156,5.71582l-7.95586,-9.69233l6.39975,-1.98803z"/>
  <polygon stroke="null" id="svg_13" points="37.285946024692386,92.47410957375358 42.765054947982755,88.05771555660066 44.63576363911725,94.0101115396137 43.299727160109434,98.61811743719407 45.97212899538918,95.16200990817559 43.83408419819134,84.60158053269332 39.69132692795356,87.67358446441357 36.0832555730618,83.44970965902029 31.138818861898113,84.98571162488041 " fill="#938d86"/>
  <path stroke="null" id="svg_14" fill="#7c7670" d="m101.82404,77.36821l-0.54938,1.40916l-0.29457,0.75608l-3.02207,7.75378l1.3733,2.68294l0.68681,1.3417l3.35201,3.11698l12.53623,0l2.23227,-2.29074l0.80545,-0.82625l-2.20911,-13.94367l-6.54437,-4.88642l-3.12036,2.50573l-3.07998,1.39747l0,0l-2.16622,0.98322zm5.38457,0l3.72766,4.36423l4.28017,-3.17411l2.20911,10.91079l-2.76131,3.57081l1.38081,-4.76093l-1.93301,-6.14986l-5.66067,4.56258l-6.35091,-7.73669l5.10815,-1.58683z"/>
  <polygon stroke="null" id="svg_15" points="102.10046059060242,78.95503769329842 108.45168350221557,86.69171448852829 114.11235323012362,82.12913014733566 116.04505528554283,88.27899442210217 114.66455185978349,93.03992689149162 117.42586018212761,89.4691106861719 115.21675048944336,78.5583414369048 110.93689250972976,81.73243389094203 107.20892483724093,77.36819767794621 " fill="#938d86"/>
  <path stroke="null" id="svg_16" fill="#7c7670" d="m78.00593,89.97018l1.04586,2.04336l2.58194,2.40093l9.65628,0l2.33965,-2.40093l-0.32368,-2.04336l-1.37768,-8.69697l-5.04085,-3.76377l-2.40351,1.93001l-4.04132,1.83376l-2.97762,7.63998l0.54093,1.05699l0,0l0,0zm13.39051,-0.29281l-1.48881,-4.73665l-4.36031,3.51459l-4.89184,-5.95915l3.93489,-1.22251l2.8715,3.36166l3.2966,-2.44501l1.70167,8.40416l-2.12678,2.75041l1.06308,-3.66752z"/>
  <polygon stroke="null" id="svg_17" points="92.4601361606261,90.59403656876746 90.7584703832441,82.19030627503706 87.46185950068376,84.6348768430962 84.59036359164348,81.27321425729313 80.65548415876184,82.49571950043354 85.54764308815139,88.45485173121595 89.9076374945531,84.94072998671435 91.39643746273997,89.67738446924521 90.33304023567926,93.3444327855559 " fill="#918A79"/>
  <polygon stroke="null" id="svg_18" points="48.76348847774134,96.52572890047303 51.45592441969311,89.97017754065745 46.35684687830108,89.97017754065745 " fill="#8BC5D2"/>
  <polygon stroke="null" id="svg_19" points="62.00655371028697,89.97017754065745 64.09358142188977,97.80580844087488 65.26402819841825,102.2001790520553 67.31911370574436,97.39651952538587 67.45498112547976,97.07898105400453 67.58176331079413,97.36817229497682 68.66581128939707,99.8392754307806 69.62903798309763,97.15769892079514 72.21128633835325,89.97017754065745 " fill="#8BC5D2"/>
  <polygon stroke="null" id="svg_20" points="51.45592441969311,89.97017754065745 54.182166203751514,99.71378875804838 55.434010103147195,104.18822448557329 57.89449165136612,98.86551644710742 62.00655371028697,89.97017754065745 " fill="#8BC5D2"/>
  <polygon stroke="null" id="svg_21" points="78.0059255901184,89.97017754065745 78.0059255901184,89.97017754065745 72.21128633835325,89.97017754065745 75.06431030772602,96.7533315904111 76.36247108848384,99.8392754307806 76.89119610341787,96.66336831407897 78.0059255901184,89.97017754065745 " fill="#8BC5D2"/>
  <path stroke="null" id="svg_22" fill="#386A76" d="m35.55203,118.68736c-0.47081,-0.04633 -0.94099,-0.08681 -1.41149,-0.0976c-0.4683,-0.03238 -0.93724,-0.04408 -1.40773,-0.04183l-1.40648,-0.04723c-0.46424,-0.04993 -0.93504,-0.08276 -1.39584,-0.17182c-1.83691,-0.34948 -3.69134,-0.91351 -5.239,-2.257c-0.37752,-0.34408 -0.7466,-0.7201 -1.05306,-1.18247c-0.31711,-0.44933 -0.58632,-0.96838 -0.77946,-1.54815c-0.39255,-1.14604 -0.51056,-2.54756 -0.28674,-3.84248l-0.17468,-0.09985c-0.38598,1.32506 -0.41352,2.85476 -0.07419,4.25808c0.16341,0.70301 0.42166,1.36194 0.74033,1.9453c0.30991,0.59956 0.69056,1.10421 1.08687,1.57288c0.81265,0.90091 1.72421,1.56749 2.65707,2.09913c0.94037,0.49611 1.90139,0.89012 2.87087,1.18292c0.48396,0.16102 0.97042,0.26762 1.45657,0.41785l1.46283,0.33734c0.48865,0.07736 0.97887,0.14528 1.46971,0.18441c0.4899,0.01844 0.98012,0.0063 1.47003,-0.01079c0.9773,-0.08366 1.95179,-0.21949 2.9147,-0.47542c0.96478,-0.23389 1.9183,-0.58562 2.85804,-1.05564l-0.0144,-0.26897c-1.95336,-0.54693 -3.856,-0.70975 -5.74393,-0.89866z"/>
  <path stroke="null" id="svg_23" fill="#386A76" d="m111.71604,110.57196c0.4755,-0.72955 0.91376,-1.50002 1.29911,-2.33391l-0.14775,-0.16687c-0.97856,1.34125 -2.06073,2.52192 -3.20927,3.48895c-0.5691,0.49386 -1.15605,0.93644 -1.75583,1.32101c-0.59571,0.39356 -1.20238,0.74394 -1.82282,1.01021c-0.6195,0.27122 -1.2556,0.44124 -1.88824,0.54693c-0.63328,0.09985 -1.25153,0.23164 -1.87948,0.35982c-1.25873,0.28426 -2.53749,0.39356 -3.97589,0.66073l-0.0457,0.26177c0.60322,0.59686 1.27187,1.0327 1.97151,1.31381c0.6987,0.2991 1.42902,0.43359 2.16184,0.45788c0.73407,0.02654 1.46564,-0.14753 2.16622,-0.44393c0.69933,-0.31395 1.36798,-0.72415 2.02442,-1.13885c0.65738,-0.4165 1.28314,-0.91485 1.88574,-1.45189c0.59728,-0.55188 1.16607,-1.15414 1.70512,-1.80002c0.53436,-0.65578 1.03803,-1.35339 1.51103,-2.08564z"/>
  <polygon stroke="null" id="svg_24" points="18.679290007874993,84.18283337543834 25.770527873393444,78.46659099279712 28.191886730402626,86.17087880895632 26.462348604887307,92.13496011973255 29.92172632674338,87.66189913665038 27.15415563316183,73.99350251482609 21.7924558931587,77.9695658869732 17.122549478210754,72.50248218713203 10.722803466922056,74.49050012576116 " fill="#938d86"/>
 </g>
</svg>