<svg width="128" height="128" xmlns="http://www.w3.org/2000/svg">

 <title>mountains</title>
 <g>
  <title>Layer 1</title>
  <path stroke="green" id="svg_2" fill="green" d="m34.4587,61.89415l6.25017,-12.39702a0.61517,0.91558 0 0 1 1.00889,0l5.04443,12.12234a0.61517,0.91558 0 0 0 1.08271,-0.10987l7.45591,-25.38001a0.61517,0.91558 0 0 1 1.15653,0.10987l1.53794,8.00221a0.61517,0.91558 0 0 0 1.14422,0.12818l6.0164,-19.37378a0.61517,0.91558 0 0 1 1.14422,0.12818l2.8298,14.00845a0.61517,0.91558 0 0 0 1.11962,0.20143l6.04101,-14.97897l-10.03964,-23.58547a1.23035,1.83117 0 0 0 -1.03349,-0.86065a1.23035,1.83117 0 0 0 -1.0458,0.89727l-17.87696,44.31431l-13.74299,-10.21793a1.23035,1.83117 0 0 0 -1.64867,0.80571l-3.16199,9.15585l5.6596,16.84676a0.61517,0.91558 0 0 0 1.0581,0.18312z" class="cls-3"/>
  <path stroke="green" id="svg_3" fill="green" d="m13.65352,128.96528a1.23035,1.86604 0 0 1 0.20916,-2.01532l31.98905,-54.11511a1.23035,1.86604 0 0 1 1.4149,-0.46651l10.18728,6.86702l15.40396,-30.54705a1.23035,1.86604 0 0 1 1.89474,-0.11196l13.61995,22.91495l4.40465,-7.46415l-16.48666,-39.67197l-6.04101,15.26419a0.61517,0.93302 0 0 1 -1.11962,-0.20526l-2.8298,-14.27519a0.61517,0.93302 0 0 0 -1.14422,-0.13062l-6.0164,19.74269a0.61517,0.93302 0 0 1 -1.14422,-0.13062l-1.53794,-8.15459a0.61517,0.93302 0 0 0 -1.15653,-0.11196l-7.45591,25.84463a0.61517,0.93302 0 0 1 -1.08271,0.11196l-5.05673,-12.27853a0.61517,0.93302 0 0 0 -1.00889,0l-6.23786,12.5771a0.61517,0.93302 0 0 1 -1.0458,-0.14928l-5.6596,-17.16755l-27.59671,82.10569a1.23035,1.86604 0 0 0 1.08271,2.66843l13.53383,0a1.23035,1.86604 0 0 1 -1.11962,-1.10096z" class="cls-4"/>
  <path stroke="green" id="svg_4" fill="green" d="m128.01184,128.50305l-30.03818,-73.15131a1.25159,1.97706 0 0 0 -1.99003,-0.23725l-8.04773,14.37324l-13.86763,-24.27833a1.25159,1.97706 0 0 0 -1.92745,0.11862l-15.6574,32.38428l-10.36317,-7.27559a1.25159,1.97706 0 0 0 -1.43933,0.49427l-32.54136,57.33481a1.25159,1.97706 0 0 0 0.92618,3.28192l113.89476,0a1.25159,1.97706 0 0 0 1.05134,-3.04468z" class="cls-5"/>
 </g>
</svg>